# xmcd CD database file
#
# Track frame offsets:
#	150
#	22438
#	53171
#	69702
#	92753
#	112888
#	135874
#	158982
#	174725
#	193239
#	213831
#	236682
#	264002
#	292872
#	320156
#
# Disc length: 4515 seconds
#
# Revision: 1
# Processed by: cddbd v1.5.2PL0 Copyright (c) Steve Scherf et al.
# Submitted via: CDex 1.51
#
DISCID=d811a10f
DTITLE=Seeräuber-Moses - Leinen los, Seeräuber-Moses (4_5)
DYEAR=2014
DGENRE=Hörbuch
TTITLE0=Folke erzählt die Geschichte von Ubbos Krankheit
TTITLE1=Der Grund für Ubbos Krankheit wird offenbar
TTITLE2=Die "Wüste Walli" läuft wieder aus
TTITLE3=Martens Rübenmus errettet vielleicht den Häuptling, währenddessen wird die "Walli" aber leider überfallen
TTITLE4=Martens Rübenmus errettet vielleicht den Häuptling, währenddessen wird die "Walli" aber leider überfallen
TTITLE5=Die Kaufleute sind noch nicht überzeugt
TTITLE6=Alle essen Rübenmus und zuerst erzählt Hinnerk und dann Simon von Utrecht eine Geschichte
TTITLE7=Alle essen Rübenmus und zuerst erzählt Hinnerk und dann Simon von Utrecht eine Geschichte
TTITLE8=Ubbo Wutwalle wacht endlich auf
TTITLE9=Ubbo Wutwalle wacht endlich auf
TTITLE10=Die "Walli" steuert endlich wieder heimische Küsten an
TTITLE11=Moses sieht endlich das Schloss wieder
TTITLE12=König und Königin freuen sich sehr über Moses' Heimkehr und Isadora benimmt sich schlecht
TTITLE13=Isadora führt sich so schlimm auf, dass man nur staunen kann
TTITLE14=Isadora führt sich so schlimm auf, dass man nur staunen kann
EXTD=YEAR: 2014
EXTT0=
EXTT1=
EXTT2=
EXTT3=
EXTT4=
EXTT5=
EXTT6=
EXTT7=
EXTT8=
EXTT9=
EXTT10=
EXTT11=
EXTT12=
EXTT13=
EXTT14=
PLAYORDER=
